<svg width="114" height="40" viewBox="0 0 114 40" fill="none" xmlns="http://www.w3.org/2000/svg">
<path d="M33 23.0713L26.0713 30H13V10H33V23.0713Z" fill="#FFF085"/>
<path d="M33 23.0713L33.1768 23.2481C33.2237 23.2012 33.25 23.1376 33.25 23.0713H33ZM26.0713 30V30.25C26.1376 30.25 26.2012 30.2237 26.2481 30.1768L26.0713 30ZM13 30H12.75C12.75 30.1381 12.8619 30.25 13 30.25V30ZM13 10V9.75C12.8619 9.75 12.75 9.86193 12.75 10H13ZM33 10H33.25C33.25 9.86193 33.1381 9.75 33 9.75V10ZM33 23.0713L32.8232 22.8945L25.8945 29.8232L26.0713 30L26.2481 30.1768L33.1768 23.2481L33 23.0713ZM26.0713 30V29.75H13V30V30.25H26.0713V30ZM13 30H13.25V10H13H12.75V30H13ZM13 10V10.25H33V10V9.75H13V10ZM33 10H32.75V23.0713H33H33.25V10H33Z" fill="#432004"/>
<path d="M26.0713 23.0713H33L26.0713 30V23.0713Z" fill="#FDC700" stroke="#432004" stroke-width="0.5" stroke-linejoin="round"/>
<path d="M97.6115 14.4338C97.6295 13.9658 97.7375 13.7318 97.9715 13.7318C98.1695 13.7318 98.3315 13.9478 98.3315 14.3258C98.3135 15.3158 98.2955 16.6298 98.2415 18.0518L100.167 18.2138C100.581 18.2678 100.707 18.3578 100.707 18.6278C100.707 18.8438 100.545 18.9698 100.275 18.9698H100.131L98.2235 18.8078C98.1335 21.0758 98.0795 23.2718 98.0255 24.0818C98.0075 24.5858 97.9355 24.8378 97.5935 24.8378C97.3055 24.8378 97.2515 24.6038 97.2515 24.2438V24.0998C97.3055 23.3258 97.3595 21.0218 97.4495 18.7538L95.1455 18.5558C94.7315 18.5018 94.6055 18.4298 94.6055 18.1598C94.6055 17.9258 94.7495 17.7998 95.0555 17.7998H95.1815L97.4855 17.9978C97.5395 16.6118 97.5575 15.2978 97.6115 14.4338Z" fill="#432004"/>
<path d="M100.707 18.6283C100.707 18.392 100.611 18.2928 100.31 18.2357L100.167 18.2142L98.2412 18.0521C98.2952 16.6301 98.3131 15.3156 98.3311 14.3256C98.331 13.9479 98.1695 13.732 97.9717 13.7318C97.7377 13.7318 97.6293 13.966 97.6113 14.434C97.5573 15.2979 97.5393 16.6117 97.4854 17.9974L95.1816 17.8002H95.0557V17.4994H95.1943L95.207 17.5013L97.1953 17.6713C97.24 16.416 97.2618 15.2229 97.3115 14.4222C97.3209 14.1774 97.3544 13.9488 97.4424 13.7728C97.4886 13.6805 97.5554 13.5916 97.6514 13.5267C97.7498 13.4604 97.8605 13.432 97.9717 13.432L98.0527 13.4379C98.2362 13.4641 98.3828 13.5779 98.4775 13.725C98.5827 13.8883 98.6318 14.0979 98.6318 14.3256V14.3314C98.6151 15.2533 98.5959 16.4615 98.5498 17.7767L100.192 17.9144L100.206 17.9164C100.412 17.9432 100.62 17.9852 100.773 18.101C100.961 18.2432 101.008 18.4443 101.008 18.6283C101.008 18.8187 100.932 18.9948 100.778 19.1156C100.634 19.2291 100.452 19.2699 100.275 19.2699H100.119L100.106 19.2689L98.5117 19.1332C98.4293 21.2789 98.377 23.3249 98.3252 24.1019L98.3242 24.101C98.3152 24.3451 98.2939 24.593 98.1992 24.7826C98.1462 24.8886 98.0666 24.9852 97.9512 25.0511C97.8386 25.1153 97.715 25.138 97.5938 25.1381C97.4812 25.1381 97.3668 25.1144 97.2637 25.0521C97.1591 24.9888 97.089 24.8992 97.0439 24.8051C96.9622 24.6341 96.9512 24.4229 96.9512 24.2435V24.0892L96.9521 24.0785C97.0035 23.3416 97.0549 21.2101 97.1387 19.0277L95.1201 18.8549L95.1064 18.8539V18.8529C94.9075 18.8269 94.6998 18.7908 94.5479 18.684C94.3522 18.5464 94.3057 18.3442 94.3057 18.1595C94.3057 17.9781 94.364 17.7916 94.5254 17.6595C94.6755 17.5367 94.869 17.4994 95.0557 17.4994V17.8002L94.9482 17.806C94.7158 17.8334 94.6056 17.955 94.6055 18.1595C94.6055 18.4295 94.7315 18.502 95.1455 18.556L97.4492 18.7543C97.3592 21.0221 97.3059 23.326 97.252 24.1V24.2435L97.2539 24.3724C97.2661 24.6178 97.3217 24.7849 97.4961 24.8275L97.5938 24.8383C97.9355 24.8381 98.0074 24.5853 98.0254 24.0814C98.0794 23.2711 98.1337 21.0756 98.2236 18.808L100.132 18.9701H100.275L100.371 18.9642C100.553 18.9411 100.67 18.8494 100.7 18.7045L100.707 18.6283Z" fill="#432004"/>
<path d="M89.0028 17.2058V17.0618C89.0028 16.7918 89.1288 16.5758 89.3628 16.5758C89.5968 16.5758 89.7048 16.6838 89.7588 17.0978C90.0468 19.9058 90.2628 22.9478 90.3528 24.0098C90.3708 24.0998 90.3708 24.1898 90.3708 24.2618C90.3708 24.5318 90.3528 24.8198 90.0108 24.8198C89.7228 24.8198 89.6148 24.6218 89.5608 24.1178C89.4708 23.0918 89.2368 19.9598 89.0028 17.2058ZM88.9128 13.2998C89.1288 13.2998 89.2548 13.4258 89.3808 14.2178C89.3988 14.4158 89.4168 14.5778 89.4168 14.7218C89.4168 14.9918 89.3808 15.2798 89.0928 15.2798C88.8048 15.2798 88.6968 14.9198 88.6248 14.2898C88.6068 14.1278 88.6068 14.0018 88.6068 13.8758C88.6068 13.6418 88.6068 13.2998 88.9128 13.2998Z" fill="#432004"/>
<path d="M88.7025 17.0615C88.7026 16.885 88.7432 16.6985 88.848 16.5469C88.9601 16.385 89.1393 16.2754 89.3627 16.2754C89.5291 16.2754 89.721 16.317 89.8627 16.4941C89.981 16.642 90.0282 16.8454 90.0561 17.0586L90.057 17.0674C90.3453 19.8785 90.5623 22.9287 90.6518 23.9844H90.6508C90.6693 24.0955 90.6713 24.199 90.6713 24.2617C90.6713 24.3871 90.6706 24.5914 90.5932 24.7646C90.5503 24.8606 90.4801 24.9557 90.3705 25.0244C90.2623 25.0923 90.1387 25.1201 90.0111 25.1201C89.9052 25.1201 89.7944 25.1015 89.6898 25.0479C89.5831 24.993 89.502 24.911 89.4428 24.8154C89.3343 24.6401 89.2893 24.4035 89.2621 24.1494V24.1436C89.1725 23.1219 88.9366 19.9742 88.7035 17.2314L88.7025 17.2188V17.0615ZM88.307 13.876C88.307 13.7716 88.3041 13.5751 88.3607 13.4053C88.3911 13.3143 88.4447 13.2087 88.5443 13.126C88.6485 13.0396 88.7764 13.0001 88.9125 13C88.9949 13 89.0993 13.0113 89.2035 13.0684C89.3087 13.126 89.3851 13.2138 89.4418 13.3135C89.5199 13.4509 89.5776 13.6428 89.6283 13.8965L89.6771 14.1709L89.6791 14.1807L89.6801 14.1904C89.6971 14.3777 89.7172 14.56 89.7172 14.7217C89.7172 14.8577 89.7102 15.0526 89.6391 15.2197C89.601 15.3092 89.5389 15.4034 89.4389 15.4746C89.3367 15.5473 89.2174 15.58 89.0932 15.5801C88.952 15.5801 88.8221 15.5333 88.7152 15.4434C88.6149 15.3588 88.5489 15.2478 88.5023 15.1387C88.4115 14.9259 88.3626 14.6395 88.3266 14.3242V14.3232C88.3066 14.1433 88.307 14.0024 88.307 13.876ZM89.0033 17.2061C89.2373 19.96 89.4709 23.0922 89.5609 24.1182C89.6082 24.5586 89.6966 24.7656 89.9105 24.8105L90.0111 24.8193C90.3528 24.8192 90.3705 24.5316 90.3705 24.2617C90.3705 24.1897 90.3709 24.0997 90.3529 24.0098C90.2854 23.2132 90.1468 21.3029 89.9604 19.2129L89.7592 17.0977C89.7119 16.7354 89.623 16.6073 89.4447 16.5811L89.3627 16.5762C89.1289 16.5763 89.0034 16.7917 89.0033 17.0615V17.2061ZM88.6088 14.0693C88.611 14.1368 88.6154 14.209 88.6244 14.29C88.6919 14.8802 88.7914 15.2331 89.0404 15.2754L89.0932 15.2803C89.3809 15.2801 89.4164 14.9916 89.4164 14.7217C89.4164 14.6498 89.4124 14.5734 89.4057 14.4902L89.3813 14.2178C89.2553 13.4258 89.1285 13.2998 88.9125 13.2998C88.6068 13.3001 88.6068 13.6421 88.6068 13.876L88.6088 14.0693Z" fill="#432004"/>
<path d="M73.7088 14.4338C73.7268 13.9658 73.8348 13.7318 74.0688 13.7318C74.2668 13.7318 74.4288 13.9478 74.4288 14.3258C74.4108 15.3158 74.3928 16.6298 74.3388 18.0518L76.2648 18.2138C76.6788 18.2678 76.8048 18.3578 76.8048 18.6278C76.8048 18.8438 76.6428 18.9698 76.3728 18.9698H76.2288L74.3208 18.8078C74.2308 21.0758 74.1768 23.2718 74.1228 24.0818C74.1048 24.5858 74.0328 24.8378 73.6908 24.8378C73.4028 24.8378 73.3488 24.6038 73.3488 24.2438V24.0998C73.4028 23.3258 73.4568 21.0218 73.5468 18.7538L71.2428 18.5558C70.8288 18.5018 70.7028 18.4298 70.7028 18.1598C70.7028 17.9258 70.8468 17.7998 71.1528 17.7998H71.2788L73.5828 17.9978C73.6368 16.6118 73.6548 15.2978 73.7088 14.4338Z" fill="#432004"/>
<path d="M76.8043 18.6283C76.8043 18.392 76.7083 18.2928 76.4069 18.2357L76.2643 18.2142L74.3385 18.0521C74.3925 16.6301 74.4103 15.3156 74.4283 14.3256C74.4283 13.9479 74.2668 13.732 74.069 13.7318C73.835 13.7318 73.7266 13.966 73.7086 14.434C73.6546 15.2979 73.6366 16.6117 73.5826 17.9974L71.2789 17.8002H71.153V17.4994H71.2916L71.3043 17.5013L73.2926 17.6713C73.3373 16.416 73.3591 15.2229 73.4088 14.4222C73.4182 14.1774 73.4517 13.9488 73.5397 13.7728C73.5859 13.6805 73.6526 13.5916 73.7487 13.5267C73.847 13.4604 73.9578 13.432 74.069 13.432L74.15 13.4379C74.3335 13.4641 74.4801 13.5779 74.5748 13.725C74.68 13.8883 74.7291 14.0979 74.7291 14.3256V14.3314C74.7124 15.2533 74.6932 16.4615 74.6471 17.7767L76.2897 17.9144L76.3033 17.9164C76.5092 17.9432 76.7178 17.9852 76.8707 18.101C77.0587 18.2432 77.1051 18.4443 77.1051 18.6283C77.105 18.8187 77.029 18.9948 76.8756 19.1156C76.7315 19.2291 76.5497 19.2699 76.3727 19.2699H76.2164L76.2037 19.2689L74.609 19.1332C74.5266 21.2789 74.4743 23.3249 74.4225 24.1019L74.4215 24.101C74.4125 24.3451 74.3912 24.593 74.2965 24.7826C74.2435 24.8886 74.1639 24.9852 74.0485 25.0511C73.9359 25.1153 73.8123 25.138 73.691 25.1381C73.5785 25.1381 73.4641 25.1144 73.361 25.0521C73.2564 24.9888 73.1863 24.8992 73.1412 24.8051C73.0595 24.6341 73.0485 24.4229 73.0485 24.2435V24.0892L73.0494 24.0785C73.1008 23.3416 73.1522 21.2101 73.236 19.0277L71.2174 18.8549L71.2037 18.8539V18.8529C71.0048 18.8269 70.7971 18.7908 70.6451 18.684C70.4495 18.5464 70.403 18.3442 70.403 18.1595C70.403 17.9781 70.4613 17.7916 70.6227 17.6595C70.7728 17.5367 70.9663 17.4994 71.153 17.4994V17.8002L71.0455 17.806C70.8131 17.8334 70.7029 17.955 70.7028 18.1595C70.7028 18.4295 70.8288 18.502 71.2428 18.556L73.5465 18.7543C73.4565 21.0221 73.4032 23.326 73.3492 24.1V24.2435L73.3512 24.3724C73.3634 24.6178 73.419 24.7849 73.5934 24.8275L73.691 24.8383C74.0328 24.8381 74.1047 24.5853 74.1227 24.0814C74.1767 23.2711 74.2309 21.0756 74.3209 18.808L76.2291 18.9701H76.3727L76.4684 18.9642C76.6503 18.9411 76.7677 18.8494 76.7975 18.7045L76.8043 18.6283Z" fill="#432004"/>
<path d="M66.3501 17.4038C66.5121 17.5658 66.6021 17.7098 66.6021 17.8538C66.6021 18.1238 66.3681 18.1238 66.3141 18.1238C66.1881 18.1238 66.0621 18.0518 65.9181 17.9078C65.4141 17.4038 64.9101 17.2058 64.3521 17.2058C63.6501 17.2058 63.1101 17.5838 63.1101 18.1418C63.1101 18.7718 63.6861 19.4378 65.3421 20.0858C66.5841 20.5898 67.1961 21.1658 67.1961 22.0118C67.1961 23.2898 66.4221 24.0098 65.0721 24.0098C63.3621 24.0098 62.0661 23.2178 61.1301 21.9218C61.0041 21.7418 60.9321 21.5798 60.9321 21.4358C60.9321 21.3638 60.9141 21.0938 61.2741 21.0938C61.4361 21.0938 61.5621 21.1298 61.8501 21.6158C62.6601 22.9118 63.8841 23.3438 65.1081 23.3438C66.0261 23.3438 66.4581 22.8218 66.4581 22.0118C66.4581 21.4358 65.9541 21.0038 64.7121 20.4818C62.9661 19.7438 62.3001 18.9338 62.3001 18.0878C62.3001 17.2238 63.1821 16.5758 64.2981 16.5758C64.9641 16.5758 65.6841 16.8278 66.3501 17.4038Z" fill="#432004"/>
<path d="M60.6322 21.4362C60.6322 21.4204 60.6214 21.2524 60.7035 21.0973C60.7489 21.0116 60.8208 20.9306 60.9261 20.8737C61.0289 20.8181 61.1471 20.7936 61.2738 20.7936C61.3242 20.7936 61.3948 20.7961 61.473 20.818C61.5542 20.8408 61.6295 20.8809 61.7015 20.9381C61.8335 21.0431 61.9586 21.2122 62.1039 21.4567C62.8459 22.6439 63.9599 23.0435 65.1078 23.0436V23.3434C63.9606 23.3433 62.8135 22.9641 62.0072 21.8492L61.85 21.6158C61.562 21.1299 61.4358 21.0934 61.2738 21.0934C60.9141 21.0936 60.932 21.3642 60.932 21.4362L60.9457 21.5475C60.9719 21.6621 61.0359 21.7867 61.1302 21.9215C62.0077 23.1365 63.2015 23.9088 64.7562 24.0006L65.0726 24.0094C66.4223 24.0092 67.1957 23.2892 67.1957 22.0114C67.1954 21.1656 66.5839 20.5895 65.3421 20.0856C63.7897 19.4781 63.1859 18.855 63.1166 18.2604L63.1097 18.1422C63.1097 17.5843 63.65 17.2058 64.3519 17.2057C64.9099 17.2057 65.4143 17.4038 65.9183 17.9078C66.0622 18.0516 66.188 18.1235 66.3138 18.1237C66.3611 18.1237 66.5466 18.1238 66.5921 17.943L66.6019 17.8541C66.6019 17.7101 66.512 17.5659 66.35 17.4039C65.7672 16.8999 65.1432 16.6436 64.5502 16.5875L64.2982 16.5758C63.1823 16.5758 62.3003 17.2237 62.3002 18.0875L62.308 18.2457C62.3874 19.0346 63.0752 19.7901 64.7123 20.4821C65.9538 21.0039 66.4581 21.4356 66.4584 22.0114L66.4535 22.1598C66.4028 22.8848 65.9686 23.3434 65.1078 23.3434V23.0436C65.5102 23.0436 65.7606 22.931 65.9115 22.774C66.0645 22.6149 66.1585 22.3656 66.1585 22.0114C66.1584 21.8302 66.0862 21.6554 65.8539 21.4528C65.61 21.2401 65.2099 21.0164 64.5961 20.7584H64.5951C62.828 20.0115 62.0003 19.1282 62.0003 18.0875C62.0005 16.9837 63.1023 16.276 64.2982 16.276C64.9495 16.276 65.6343 16.492 66.2748 16.9606L66.5462 17.1774L66.555 17.1842L66.5619 17.192C66.7343 17.3645 66.9017 17.5833 66.9017 17.8541C66.9017 17.9657 66.8772 18.0721 66.8216 18.1647C66.7659 18.2573 66.6901 18.3179 66.6166 18.3561C66.4804 18.4265 66.3411 18.4235 66.3138 18.4235C66.0668 18.4233 65.8679 18.2813 65.7064 18.1198C65.2532 17.6666 64.823 17.5055 64.3519 17.5055C64.0519 17.5055 63.8072 17.5867 63.6459 17.7057C63.4894 17.821 63.4105 17.9707 63.4105 18.1422C63.4106 18.3535 63.5028 18.6027 63.8089 18.8873C64.0819 19.141 64.5136 19.4119 65.1605 19.6881L65.4515 19.8063L65.4554 19.8082C66.0917 20.0665 66.5987 20.3547 66.9486 20.7096C67.3082 21.0745 67.4963 21.5044 67.4964 22.0114C67.4964 22.7117 67.2825 23.299 66.846 23.7086C66.4123 24.1155 65.7984 24.3101 65.0726 24.3102C63.2532 24.3102 61.8713 23.4601 60.8871 22.0973L60.8841 22.0934C60.7476 21.8982 60.6323 21.6735 60.6322 21.4362Z" fill="#432004"/>
<path d="M57.2494 20.6078C57.2494 22.1918 56.0434 23.5418 54.2974 23.5418C52.4974 23.5418 51.2374 22.2638 51.2374 20.8418C51.2374 19.5098 52.1734 18.1058 53.8474 17.6738C53.9374 17.6558 54.0454 17.6378 54.1354 17.6378C54.2254 17.6378 54.4774 17.6558 54.6214 17.7818C56.3314 18.1418 57.2494 19.3118 57.2494 20.6078ZM52.0114 20.8958C52.0114 21.9038 52.7494 22.8398 54.2974 22.8398C55.7194 22.8398 56.5114 21.8498 56.5114 20.6258C56.5114 19.3298 55.6834 18.6458 54.2434 18.3578H54.2254C52.9294 18.6458 52.0114 19.6178 52.0114 20.8958Z" fill="#432004"/>
<path d="M57.2491 20.6075C57.249 19.3117 56.3311 18.1413 54.6212 17.7814C54.5131 17.687 54.3441 17.6536 54.2286 17.6427L54.1359 17.6378C54.046 17.6378 53.9377 17.656 53.8478 17.674C52.1738 18.1059 51.2374 19.5099 51.2374 20.8419L51.2521 21.1066C51.3875 22.3313 52.4532 23.3918 53.9669 23.5275L54.297 23.5421C56.043 23.5421 57.2491 22.1915 57.2491 20.6075ZM56.2111 20.6261C56.2111 20.049 56.0301 19.6363 55.7101 19.3312C55.3889 19.025 54.9016 18.8033 54.2374 18.6642C53.0813 18.9417 52.3117 19.8011 52.3116 20.8956C52.3116 21.3256 52.4677 21.7305 52.7804 22.0284C53.0923 22.3255 53.5849 22.5401 54.297 22.5402V22.84L54.0167 22.8292C52.7507 22.7298 52.1007 21.9552 52.0197 21.0841L52.0118 20.8956C52.0119 19.6177 52.9298 18.6455 54.2257 18.3575H54.2433C55.6833 18.6455 56.5118 19.3301 56.5118 20.6261L56.5021 20.8527C56.4097 21.9698 55.63 22.84 54.297 22.84V22.5402C54.9345 22.5402 55.406 22.32 55.7189 21.9865C56.0345 21.65 56.211 21.174 56.2111 20.6261ZM57.549 20.6075C57.549 22.3487 56.2171 23.8419 54.297 23.8419C52.3553 23.8417 50.9377 22.4523 50.9376 20.8419C50.9376 19.3728 51.9664 17.8491 53.7726 17.3829L53.7804 17.381L53.7882 17.38C53.8804 17.3616 54.0141 17.338 54.1359 17.338C54.1968 17.338 54.3049 17.3434 54.423 17.3693C54.5161 17.3897 54.6362 17.4305 54.7472 17.505C56.533 17.9056 57.5488 19.165 57.549 20.6075Z" fill="#432004"/>
<path d="M41.2977 25.6298C41.3157 25.7198 41.3157 25.7918 41.3157 25.8458C41.3157 26.0618 41.2437 26.2598 41.0277 26.2598C40.8297 26.2598 40.7397 26.1698 40.6677 25.8278C40.2357 23.6678 39.4617 15.8018 39.3177 14.0738C39.2997 14.0198 39.2997 13.9658 39.2997 13.9118C39.2997 13.6238 39.4077 13.3718 39.6957 13.3718C39.9297 13.3718 40.0557 13.5878 40.0917 14.0198C40.1097 14.0018 40.1637 13.9838 40.2357 13.9658C40.9377 13.6778 42.0897 13.6598 42.4497 13.6598C44.6637 13.6598 46.7337 15.1718 46.7337 17.5838C46.7337 20.4818 45.0957 22.1738 42.5937 22.1738C41.9637 22.1738 41.3697 22.1198 40.8477 21.9758C41.0457 23.5598 41.1717 24.9278 41.2977 25.6298ZM40.2897 14.7038C40.2177 14.7218 40.1637 14.7398 40.1457 14.7578C40.2357 16.1618 40.5417 18.7898 40.7757 21.2378C41.3157 21.3998 41.9997 21.4718 42.8097 21.4718C44.6997 21.4718 45.9957 20.0498 45.9957 17.5838C45.9957 15.6218 44.2677 14.3798 42.4497 14.3798C41.6757 14.3798 40.9197 14.4878 40.2897 14.7038Z" fill="#432004"/>
<path d="M38.9999 13.9119C38.9999 13.7379 39.0312 13.5386 39.1367 13.3728C39.2535 13.1892 39.4474 13.072 39.6962 13.072C39.9288 13.0722 40.1109 13.1906 40.2245 13.3787C40.2672 13.4492 40.2981 13.5293 40.3232 13.615C40.6767 13.5017 41.0843 13.4405 41.4423 13.406C41.8766 13.3642 42.2657 13.3601 42.4501 13.3601C44.784 13.3603 47.0341 14.964 47.0341 17.5837C47.0341 19.088 46.6083 20.315 45.8232 21.1687C45.0355 22.0251 43.915 22.4734 42.5937 22.4734C42.1088 22.4734 41.6361 22.4419 41.1943 22.3611C41.3643 23.7721 41.4789 24.9391 41.5917 25.571L41.6132 25.7322C41.6162 25.7787 41.6162 25.8172 41.6161 25.8455C41.6161 25.9784 41.5952 26.1438 41.5117 26.2859C41.4161 26.4483 41.248 26.5603 41.0273 26.5603C40.8776 26.5602 40.7064 26.5225 40.5732 26.3679C40.4633 26.2404 40.411 26.0653 40.374 25.8894V25.8865C39.9397 23.7148 39.1695 15.8851 39.0214 14.1199C39.0001 14.0311 38.9999 13.9519 38.9999 13.9119ZM45.6962 17.5837C45.6962 15.8336 44.1523 14.6796 42.4501 14.6794C41.7326 14.6794 41.0395 14.7769 40.4619 14.9636C40.564 16.3623 40.8328 18.73 41.0527 21.0017C41.5242 21.1166 42.1111 21.1716 42.8095 21.1716V21.4714C41.9996 21.4714 41.3153 21.4 40.7753 21.238C40.5413 18.79 40.2354 16.1616 40.1454 14.7576C40.1544 14.7486 40.1726 14.7402 40.1972 14.7312L40.29 14.7039C40.9199 14.4879 41.6762 14.3796 42.4501 14.3796L42.789 14.3943C44.4769 14.5379 45.996 15.7444 45.996 17.5837L45.9921 17.8123C45.9142 20.1374 44.6404 21.4714 42.8095 21.4714V21.1716C43.6736 21.1716 44.3834 20.8497 44.8818 20.2595C45.3846 19.6638 45.6962 18.7666 45.6962 17.5837ZM39.3017 13.9929C39.3039 14.0199 39.3083 14.047 39.3173 14.074C39.4613 15.8022 40.2359 23.6679 40.6679 25.8279C40.7398 26.1695 40.8296 26.2594 41.0273 26.2595C41.2433 26.2595 41.3154 26.0615 41.3154 25.8455C41.3154 25.7915 41.3157 25.7194 41.2978 25.6296C41.1718 24.9276 41.0456 23.5592 40.8476 21.9753C41.3696 22.1193 41.9637 22.1736 42.5937 22.1736C45.0957 22.1736 46.7333 20.4817 46.7333 17.5837C46.7333 15.2473 44.7913 13.7549 42.6572 13.6638L42.4501 13.6599C42.0901 13.6599 40.9373 13.6776 40.2353 13.9656C40.1635 13.9835 40.1097 14.0023 40.0917 14.0203C40.0602 13.6421 39.9598 13.4287 39.7783 13.3816L39.6962 13.3718C39.4082 13.3718 39.2997 13.6239 39.2997 13.9119L39.3017 13.9929Z" fill="#432004"/>
</svg>
