<svg width="97" height="42" viewBox="0 0 97 42" fill="none" xmlns="http://www.w3.org/2000/svg">
<path d="M97 30.0195L85.0195 42H0V0H97V30.0195Z" fill="#FFF085"/>
<path d="M85.0195 30.0195H97L85.0195 42V30.0195Z" fill="#FDC700"/>
<path d="M76.6016 14.842C76.6196 14.374 76.7276 14.14 76.9616 14.14C77.1596 14.14 77.3216 14.356 77.3216 14.734C77.3036 15.724 77.2856 17.038 77.2316 18.46L79.1576 18.622C79.5716 18.676 79.6976 18.766 79.6976 19.036C79.6976 19.252 79.5356 19.378 79.2656 19.378H79.1216L77.2136 19.216C77.1236 21.484 77.0696 23.68 77.0156 24.49C76.9976 24.994 76.9256 25.246 76.5836 25.246C76.2956 25.246 76.2416 25.012 76.2416 24.652V24.508C76.2956 23.734 76.3496 21.43 76.4396 19.162L74.1356 18.964C73.7216 18.91 73.5956 18.838 73.5956 18.568C73.5956 18.334 73.7396 18.208 74.0456 18.208H74.1716L76.4756 18.406C76.5296 17.02 76.5476 15.706 76.6016 14.842Z" fill="#432004"/>
<path d="M79.6971 19.0365C79.6971 18.8002 79.6012 18.701 79.2997 18.6439L79.1571 18.6224L77.2313 18.4603C77.2853 17.0383 77.3032 15.7238 77.3212 14.7338C77.3211 14.3561 77.1597 14.1402 76.9618 14.14C76.7278 14.14 76.6194 14.3742 76.6014 14.8422C76.5475 15.7061 76.5294 17.0199 76.4755 18.4056L74.1718 18.2084H74.0458V17.9076H74.1844L74.1971 17.9095L76.1854 18.0795C76.2301 16.8242 76.2519 15.6311 76.3016 14.8304C76.3111 14.5856 76.3445 14.357 76.4325 14.181C76.4787 14.0887 76.5455 13.9998 76.6415 13.9349C76.7399 13.8686 76.8507 13.8402 76.9618 13.8402L77.0428 13.8461C77.2263 13.8723 77.3729 13.9861 77.4677 14.1332C77.5729 14.2965 77.6219 14.5061 77.6219 14.7338V14.7396C77.6052 15.6615 77.586 16.8697 77.5399 18.1849L79.1825 18.3226L79.1962 18.3246C79.402 18.3514 79.6106 18.3934 79.7635 18.5092C79.9515 18.6514 79.9979 18.8525 79.9979 19.0365C79.9978 19.2269 79.9218 19.403 79.7684 19.5238C79.6244 19.6373 79.4425 19.6781 79.2655 19.6781H79.1093L79.0966 19.6771L77.5018 19.5414C77.4194 21.6871 77.3671 23.7331 77.3153 24.5101L77.3143 24.5092C77.3053 24.7533 77.284 25.0012 77.1893 25.1908C77.1363 25.2968 77.0567 25.3934 76.9413 25.4594C76.8288 25.5236 76.7052 25.5462 76.5839 25.5463C76.4713 25.5463 76.3569 25.5226 76.2538 25.4603C76.1492 25.3971 76.0791 25.3074 76.0341 25.2133C75.9523 25.0423 75.9413 24.8311 75.9413 24.6517V24.4974L75.9423 24.4867C75.9936 23.7498 76.045 21.6183 76.1288 19.4359L74.1102 19.2631L74.0966 19.2621V19.2611C73.8976 19.2351 73.6899 19.199 73.538 19.0922C73.3423 18.9546 73.2958 18.7524 73.2958 18.5677C73.2958 18.3864 73.3542 18.1998 73.5155 18.0677C73.6656 17.9449 73.8591 17.9076 74.0458 17.9076V18.2084L73.9384 18.2142C73.7059 18.2416 73.5957 18.3632 73.5956 18.5677C73.5956 18.8377 73.7216 18.9102 74.1356 18.9642L76.4393 19.1625C76.3493 21.4303 76.2961 23.7342 76.2421 24.5082V24.6517L76.244 24.7806C76.2562 25.026 76.3118 25.1931 76.4862 25.2357L76.5839 25.2465C76.9256 25.2463 76.9975 24.9935 77.0155 24.4896C77.0695 23.6793 77.1238 21.4838 77.2137 19.2162L79.1219 19.3783H79.2655L79.3612 19.3724C79.5431 19.3493 79.6606 19.2576 79.6903 19.1127L79.6971 19.0365Z" fill="#432004"/>
<path d="M67.993 17.614V17.47C67.993 17.2 68.119 16.984 68.353 16.984C68.587 16.984 68.695 17.092 68.749 17.506C69.037 20.314 69.253 23.356 69.343 24.418C69.361 24.508 69.361 24.598 69.361 24.67C69.361 24.94 69.343 25.228 69.001 25.228C68.713 25.228 68.605 25.03 68.551 24.526C68.461 23.5 68.227 20.368 67.993 17.614ZM67.903 13.708C68.119 13.708 68.245 13.834 68.371 14.626C68.389 14.824 68.407 14.986 68.407 15.13C68.407 15.4 68.371 15.688 68.083 15.688C67.795 15.688 67.687 15.328 67.615 14.698C67.597 14.536 67.597 14.41 67.597 14.284C67.597 14.05 67.597 13.708 67.903 13.708Z" fill="#432004"/>
<path d="M67.6927 17.4697C67.6927 17.2932 67.7333 17.1067 67.8382 16.9551C67.9502 16.7932 68.1294 16.6836 68.3528 16.6836C68.5192 16.6836 68.7111 16.7252 68.8528 16.9023C68.9711 17.0502 69.0183 17.2536 69.0462 17.4668L69.0471 17.4756C69.3355 20.2867 69.5524 23.337 69.6419 24.3926H69.6409C69.6594 24.5037 69.6614 24.6072 69.6614 24.6699C69.6614 24.7953 69.6607 24.9996 69.5833 25.1729C69.5404 25.2688 69.4702 25.3639 69.3606 25.4326C69.2524 25.5005 69.1288 25.5283 69.0012 25.5283C68.8953 25.5283 68.7845 25.5097 68.68 25.4561C68.5732 25.4012 68.4921 25.3192 68.4329 25.2236C68.3244 25.0483 68.2794 24.8117 68.2522 24.5576V24.5518C68.1626 23.5301 67.9267 20.3824 67.6936 17.6396L67.6927 17.627V17.4697ZM67.2971 14.2842C67.2971 14.1798 67.2942 13.9833 67.3509 13.8135C67.3812 13.7225 67.4348 13.6169 67.5344 13.5342C67.6386 13.4478 67.7665 13.4083 67.9026 13.4082C67.9851 13.4082 68.0895 13.4195 68.1936 13.4766C68.2989 13.5342 68.3752 13.622 68.4319 13.7217C68.51 13.8591 68.5677 14.051 68.6184 14.3047L68.6673 14.5791L68.6692 14.5889L68.6702 14.5986C68.6872 14.7859 68.7073 14.9682 68.7073 15.1299C68.7073 15.2659 68.7003 15.4608 68.6292 15.6279C68.5911 15.7174 68.529 15.8116 68.429 15.8828C68.3268 15.9555 68.2075 15.9882 68.0833 15.9883C67.9421 15.9883 67.8122 15.9415 67.7053 15.8516C67.605 15.7671 67.539 15.656 67.4925 15.5469C67.4017 15.3341 67.3527 15.0477 67.3167 14.7324V14.7314C67.2967 14.5515 67.2971 14.4106 67.2971 14.2842ZM67.9934 17.6143C68.2274 20.3682 68.4611 23.5004 68.5511 24.5264C68.5983 24.9668 68.6867 25.1738 68.9007 25.2188L69.0012 25.2275C69.343 25.2274 69.3606 24.9398 69.3606 24.6699C69.3606 24.5979 69.361 24.5079 69.343 24.418C69.2755 23.6214 69.1369 21.7111 68.9505 19.6211L68.7493 17.5059C68.702 17.1436 68.6131 17.0155 68.4348 16.9893L68.3528 16.9844C68.119 16.9845 67.9935 17.1999 67.9934 17.4697V17.6143ZM67.5989 14.4775C67.6012 14.545 67.6055 14.6173 67.6145 14.6982C67.682 15.2884 67.7815 15.6413 68.0305 15.6836L68.0833 15.6885C68.371 15.6883 68.4065 15.3998 68.4065 15.1299C68.4065 15.058 68.4025 14.9816 68.3958 14.8984L68.3714 14.626C68.2454 13.834 68.1186 13.708 67.9026 13.708C67.5969 13.7083 67.5969 14.0503 67.5969 14.2842L67.5989 14.4775Z" fill="#432004"/>
<path d="M52.6988 14.842C52.7168 14.374 52.8248 14.14 53.0588 14.14C53.2568 14.14 53.4188 14.356 53.4188 14.734C53.4008 15.724 53.3828 17.038 53.3288 18.46L55.2548 18.622C55.6688 18.676 55.7948 18.766 55.7948 19.036C55.7948 19.252 55.6328 19.378 55.3628 19.378H55.2188L53.3108 19.216C53.2208 21.484 53.1668 23.68 53.1128 24.49C53.0948 24.994 53.0228 25.246 52.6808 25.246C52.3928 25.246 52.3388 25.012 52.3388 24.652V24.508C52.3928 23.734 52.4468 21.43 52.5368 19.162L50.2328 18.964C49.8188 18.91 49.6928 18.838 49.6928 18.568C49.6928 18.334 49.8368 18.208 50.1428 18.208H50.2688L52.5728 18.406C52.6268 17.02 52.6448 15.706 52.6988 14.842Z" fill="#432004"/>
<path d="M55.7944 19.0365C55.7944 18.8002 55.6984 18.701 55.3969 18.6439L55.2544 18.6224L53.3286 18.4603C53.3826 17.0383 53.4004 15.7238 53.4184 14.7338C53.4184 14.3561 53.2569 14.1402 53.0591 14.14C52.8251 14.14 52.7167 14.3742 52.6987 14.8422C52.6447 15.7061 52.6267 17.0199 52.5727 18.4056L50.269 18.2084H50.143V17.9076H50.2817L50.2944 17.9095L52.2827 18.0795C52.3274 16.8242 52.3492 15.6311 52.3989 14.8304C52.4083 14.5856 52.4418 14.357 52.5298 14.181C52.576 14.0887 52.6427 13.9998 52.7387 13.9349C52.8371 13.8686 52.9479 13.8402 53.0591 13.8402L53.1401 13.8461C53.3235 13.8723 53.4701 13.9861 53.5649 14.1332C53.6701 14.2965 53.7192 14.5061 53.7192 14.7338V14.7396C53.7024 15.6615 53.6833 16.8697 53.6372 18.1849L55.2798 18.3226L55.2934 18.3246C55.4992 18.3514 55.7078 18.3934 55.8608 18.5092C56.0488 18.6514 56.0952 18.8525 56.0952 19.0365C56.0951 19.2269 56.0191 19.403 55.8657 19.5238C55.7216 19.6373 55.5398 19.6781 55.3628 19.6781H55.2065L55.1938 19.6771L53.5991 19.5414C53.5167 21.6871 53.4644 23.7331 53.4126 24.5101L53.4116 24.5092C53.4026 24.7533 53.3813 25.0012 53.2866 25.1908C53.2336 25.2968 53.154 25.3934 53.0385 25.4594C52.926 25.5236 52.8024 25.5462 52.6811 25.5463C52.5686 25.5463 52.4542 25.5226 52.351 25.4603C52.2464 25.3971 52.1763 25.3074 52.1313 25.2133C52.0496 25.0423 52.0385 24.8311 52.0385 24.6517V24.4974L52.0395 24.4867C52.0909 23.7498 52.1423 21.6183 52.226 19.4359L50.2075 19.2631L50.1938 19.2621V19.2611C49.9948 19.2351 49.7872 19.199 49.6352 19.0922C49.4395 18.9546 49.393 18.7524 49.393 18.5677C49.3931 18.3864 49.4514 18.1998 49.6128 18.0677C49.7629 17.9449 49.9563 17.9076 50.143 17.9076V18.2084L50.0356 18.2142C49.8032 18.2416 49.6929 18.3632 49.6928 18.5677C49.6928 18.8377 49.8189 18.9102 50.2329 18.9642L52.5366 19.1625C52.4466 21.4303 52.3933 23.7342 52.3393 24.5082V24.6517L52.3413 24.7806C52.3535 25.026 52.4091 25.1931 52.5835 25.2357L52.6811 25.2465C53.0229 25.2463 53.0948 24.9935 53.1128 24.4896C53.1668 23.6793 53.221 21.4838 53.311 19.2162L55.2192 19.3783H55.3628L55.4585 19.3724C55.6404 19.3493 55.7578 19.2576 55.7876 19.1127L55.7944 19.0365Z" fill="#432004"/>
<path d="M45.3402 17.812C45.5022 17.974 45.5922 18.118 45.5922 18.262C45.5922 18.532 45.3582 18.532 45.3042 18.532C45.1782 18.532 45.0522 18.46 44.9082 18.316C44.4042 17.812 43.9002 17.614 43.3422 17.614C42.6402 17.614 42.1002 17.992 42.1002 18.55C42.1002 19.18 42.6762 19.846 44.3322 20.494C45.5742 20.998 46.1862 21.574 46.1862 22.42C46.1862 23.698 45.4122 24.418 44.0622 24.418C42.3522 24.418 41.0562 23.626 40.1202 22.33C39.9942 22.15 39.9222 21.988 39.9222 21.844C39.9222 21.772 39.9042 21.502 40.2642 21.502C40.4262 21.502 40.5522 21.538 40.8402 22.024C41.6502 23.32 42.8742 23.752 44.0982 23.752C45.0162 23.752 45.4482 23.23 45.4482 22.42C45.4482 21.844 44.9442 21.412 43.7022 20.89C41.9562 20.152 41.2902 19.342 41.2902 18.496C41.2902 17.632 42.1722 16.984 43.2882 16.984C43.9542 16.984 44.6742 17.236 45.3402 17.812Z" fill="#432004"/>
<path d="M39.6223 21.8444C39.6223 21.8286 39.6115 21.6606 39.6936 21.5055C39.739 21.4198 39.8109 21.3388 39.9162 21.2819C40.019 21.2263 40.1372 21.2018 40.2639 21.2018C40.3143 21.2018 40.3849 21.2043 40.4631 21.2262C40.5443 21.249 40.6196 21.2891 40.6916 21.3463C40.8236 21.4513 40.9487 21.6204 41.0939 21.8649C41.8359 23.0521 42.95 23.4517 44.0979 23.4518V23.7516C42.9506 23.7515 41.8035 23.3723 40.9973 22.2574L40.84 22.024C40.5521 21.5381 40.4259 21.5016 40.2639 21.5016C39.9042 21.5018 39.9221 21.7724 39.9221 21.8444L39.9357 21.9557C39.9619 22.0703 40.026 22.1949 40.1203 22.3297C40.9978 23.5447 42.1915 24.317 43.7463 24.4088L44.0627 24.4176C45.4124 24.4174 46.1857 23.6974 46.1857 22.4196C46.1855 21.5738 45.574 20.9977 44.3322 20.4938C42.7798 19.8863 42.176 19.2632 42.1066 18.6686L42.0998 18.5504C42.0998 17.9925 42.6401 17.614 43.342 17.6139C43.9 17.6139 44.4044 17.812 44.9084 18.316C45.0522 18.4599 45.178 18.5317 45.3039 18.5319C45.3512 18.5319 45.5367 18.5321 45.5822 18.3512L45.592 18.2623C45.592 18.1183 45.502 17.9741 45.34 17.8121C44.7573 17.3081 44.1333 17.0518 43.5402 16.9957L43.2883 16.984C42.1724 16.984 41.2904 17.6319 41.2902 18.4957L41.298 18.6539C41.3775 19.4428 42.0653 20.1983 43.7023 20.8903C44.9439 21.4121 45.4482 21.8438 45.4484 22.4196L45.4436 22.568C45.3929 23.293 44.9587 23.7516 44.0979 23.7516V23.4518C44.5003 23.4518 44.7507 23.3392 44.9016 23.1823C45.0545 23.0231 45.1486 22.7738 45.1486 22.4196C45.1485 22.2384 45.0763 22.0636 44.8439 21.861C44.6001 21.6483 44.2 21.4246 43.5861 21.1666H43.5852C41.8181 20.4197 40.9904 19.5364 40.9904 18.4957C40.9906 17.3919 42.0924 16.6842 43.2883 16.6842C43.9395 16.6842 44.6244 16.9002 45.2648 17.3688L45.5363 17.5856L45.5451 17.5924L45.552 17.6002C45.7244 17.7727 45.8918 17.9915 45.8918 18.2623C45.8917 18.3739 45.8673 18.4803 45.8117 18.5729C45.756 18.6655 45.6802 18.7261 45.6066 18.7643C45.4705 18.8347 45.3312 18.8317 45.3039 18.8317C45.0569 18.8315 44.858 18.6895 44.6965 18.528C44.2433 18.0748 43.813 17.9137 43.342 17.9137C43.0419 17.9137 42.7973 17.9949 42.6359 18.1139C42.4795 18.2292 42.4006 18.3789 42.4006 18.5504C42.4007 18.7617 42.4929 19.0109 42.799 19.2955C43.072 19.5493 43.5037 19.8201 44.1506 20.0963L44.4416 20.2145L44.4455 20.2164C45.0817 20.4747 45.5888 20.7629 45.9387 21.1178C46.2983 21.4827 46.4864 21.9126 46.4865 22.4196C46.4865 23.1199 46.2726 23.7072 45.8361 24.1168C45.4023 24.5237 44.7885 24.7183 44.0627 24.7184C42.2433 24.7184 40.8614 23.8683 39.8771 22.5055L39.8742 22.5016C39.7376 22.3064 39.6224 22.0818 39.6223 21.8444Z" fill="#432004"/>
<path d="M36.2395 21.016C36.2395 22.6 35.0335 23.95 33.2875 23.95C31.4875 23.95 30.2275 22.672 30.2275 21.25C30.2275 19.918 31.1635 18.514 32.8375 18.082C32.9275 18.064 33.0355 18.046 33.1255 18.046C33.2155 18.046 33.4675 18.064 33.6115 18.19C35.3215 18.55 36.2395 19.72 36.2395 21.016ZM31.0015 21.304C31.0015 22.312 31.7395 23.248 33.2875 23.248C34.7095 23.248 35.5015 22.258 35.5015 21.034C35.5015 19.738 34.6735 19.054 33.2335 18.766H33.2155C31.9195 19.054 31.0015 20.026 31.0015 21.304Z" fill="#432004"/>
<path d="M36.2393 21.0157C36.2391 19.7199 35.3212 18.5495 33.6113 18.1896C33.5032 18.0952 33.3342 18.0618 33.2188 18.0509L33.126 18.046C33.0361 18.046 32.9278 18.0642 32.8379 18.0822C31.1639 18.5142 30.2275 19.9181 30.2275 21.2501L30.2422 21.5148C30.3776 22.7395 31.4433 23.8 32.957 23.9357L33.2871 23.9503C35.0331 23.9503 36.2393 22.5997 36.2393 21.0157ZM35.2012 21.0343C35.2012 20.4572 35.0202 20.0445 34.7002 19.7394C34.379 19.4332 33.8917 19.2115 33.2275 19.0724C32.0714 19.3499 31.3018 20.2093 31.3018 21.3038C31.3018 21.7338 31.4579 22.1387 31.7705 22.4366C32.0824 22.7337 32.575 22.9483 33.2871 22.9484V23.2482L33.0068 23.2374C31.7408 23.138 31.0909 22.3634 31.0098 21.4923L31.002 21.3038C31.002 20.0259 31.9199 19.0537 33.2158 18.7657H33.2334C34.6734 19.0537 35.502 19.7383 35.502 21.0343L35.4922 21.2609C35.3999 22.378 34.6201 23.2482 33.2871 23.2482V22.9484C33.9246 22.9484 34.3961 22.7282 34.709 22.3947C35.0246 22.0582 35.2011 21.5822 35.2012 21.0343ZM36.5391 21.0157C36.5391 22.7569 35.2072 24.2501 33.2871 24.2501C31.3455 24.2499 29.9278 22.8605 29.9277 21.2501C29.9277 19.781 30.9565 18.2573 32.7627 17.7911L32.7705 17.7892L32.7783 17.7882C32.8705 17.7698 33.0042 17.7462 33.126 17.7462C33.1869 17.7462 33.295 17.7516 33.4131 17.7775C33.5062 17.7979 33.6263 17.8387 33.7373 17.9132C35.5231 18.3138 36.5389 19.5732 36.5391 21.0157Z" fill="#432004"/>
<path d="M20.2879 26.038C20.3059 26.128 20.3059 26.2 20.3059 26.254C20.3059 26.47 20.2339 26.668 20.0179 26.668C19.8199 26.668 19.7299 26.578 19.6579 26.236C19.2259 24.076 18.4519 16.21 18.3079 14.482C18.2899 14.428 18.2899 14.374 18.2899 14.32C18.2899 14.032 18.3979 13.78 18.6859 13.78C18.9199 13.78 19.0459 13.996 19.0819 14.428C19.0999 14.41 19.1539 14.392 19.2259 14.374C19.9279 14.086 21.0799 14.068 21.4399 14.068C23.6539 14.068 25.7239 15.58 25.7239 17.992C25.7239 20.89 24.0859 22.582 21.5839 22.582C20.9539 22.582 20.3599 22.528 19.8379 22.384C20.0359 23.968 20.1619 25.336 20.2879 26.038ZM19.2799 15.112C19.2079 15.13 19.1539 15.148 19.1359 15.166C19.2259 16.57 19.5319 19.198 19.7659 21.646C20.3059 21.808 20.9899 21.88 21.7999 21.88C23.6899 21.88 24.9859 20.458 24.9859 17.992C24.9859 16.03 23.2579 14.788 21.4399 14.788C20.6659 14.788 19.9099 14.896 19.2799 15.112Z" fill="#432004"/>
<path d="M17.9901 14.3201C17.9901 14.1461 18.0213 13.9468 18.1268 13.781C18.2436 13.5974 18.4375 13.4802 18.6864 13.4802C18.9189 13.4804 19.101 13.5988 19.2147 13.7869C19.2573 13.8574 19.2882 13.9375 19.3133 14.0232C19.6668 13.9099 20.0745 13.8487 20.4325 13.8142C20.8668 13.7724 21.2559 13.7683 21.4403 13.7683C23.7742 13.7685 26.0242 15.3722 26.0243 17.9919C26.0243 19.4962 25.5984 20.7232 24.8133 21.5769C24.0257 22.4333 22.9051 22.8816 21.5838 22.8816C21.0989 22.8816 20.6262 22.8501 20.1844 22.7693C20.3544 24.1803 20.469 25.3473 20.5819 25.9792L20.6034 26.1404C20.6063 26.1869 20.6063 26.2254 20.6063 26.2537C20.6063 26.3866 20.5853 26.552 20.5018 26.6941C20.4063 26.8565 20.2382 26.9685 20.0174 26.9685C19.8678 26.9684 19.6966 26.9307 19.5633 26.7761C19.4534 26.6486 19.4011 26.4735 19.3641 26.2976V26.2947C18.9298 24.123 18.1596 16.2933 18.0116 14.5281C17.9903 14.4393 17.9901 14.3601 17.9901 14.3201ZM24.6864 17.9919C24.6863 16.2418 23.1425 15.0878 21.4403 15.0876C20.7228 15.0876 20.0297 15.1851 19.452 15.3718C19.5541 16.7706 19.8229 19.1382 20.0428 21.4099C20.5143 21.5248 21.1013 21.5798 21.7997 21.5798V21.8796C20.9898 21.8796 20.3054 21.8082 19.7655 21.6462C19.5315 19.1982 19.2256 16.5698 19.1356 15.1658C19.1445 15.1568 19.1628 15.1484 19.1873 15.1394L19.2801 15.1121C19.9101 14.8961 20.6664 14.7878 21.4403 14.7878L21.7791 14.8025C23.467 14.9461 24.9861 16.1526 24.9862 17.9919L24.9823 18.2205C24.9044 20.5456 23.6305 21.8796 21.7997 21.8796V21.5798C22.6638 21.5798 23.3735 21.2579 23.8719 20.6677C24.3747 20.0721 24.6864 19.1748 24.6864 17.9919ZM18.2918 14.4011C18.2941 14.4281 18.2985 14.4552 18.3075 14.4822C18.4515 16.2104 19.2261 24.0761 19.6581 26.2361C19.73 26.5777 19.8198 26.6676 20.0174 26.6677C20.2334 26.6677 20.3055 26.4697 20.3055 26.2537C20.3055 26.1997 20.3059 26.1276 20.2879 26.0378C20.1619 25.3358 20.0357 23.9674 19.8377 22.3835C20.3597 22.5275 20.9539 22.5818 21.5838 22.5818C24.0858 22.5818 25.7235 20.8899 25.7235 17.9919C25.7234 15.6555 23.7814 14.1631 21.6473 14.072L21.4403 14.0681C21.0803 14.0681 19.9274 14.0858 19.2254 14.3738C19.1536 14.3917 19.0998 14.4105 19.0819 14.4285C19.0504 14.0503 18.95 13.8369 18.7684 13.7898L18.6864 13.78C18.3984 13.78 18.2899 14.0321 18.2899 14.3201L18.2918 14.4011Z" fill="#432004"/>
</svg>
