<svg width="120" height="120" viewBox="0 0 120 120" fill="none" xmlns="http://www.w3.org/2000/svg">
<path opacity="0.3" d="M12 60C12 53.6966 13.2416 47.4548 15.6538 41.6312C18.066 35.8076 21.6017 30.5161 26.0589 26.0589C30.5161 21.6017 35.8076 18.066 41.6312 15.6538C47.4548 13.2416 53.6966 12 60 12C66.3035 12 72.5452 13.2416 78.3688 15.6538C84.1924 18.066 89.4839 21.6017 93.9411 26.0589C98.3983 30.5161 101.934 35.8076 104.346 41.6312C106.758 47.4548 108 53.6966 108 60C108 72.7304 102.943 84.9394 93.9411 93.9411C84.9394 102.943 72.7304 108 60 108C47.2696 108 35.0606 102.943 26.0589 93.9411C17.0571 84.9394 12 72.7304 12 60Z" fill="#737373"/>
<path opacity="0.5" d="M60 76C74.4479 76 86.9711 83.0289 93.1738 93.3115C93.4938 93.8288 93.3918 94.4848 92.96 94.8955C84.0582 103.325 72.2599 108.017 60 108C47.7401 108.017 35.9418 103.325 27.04 94.8955C26.8302 94.6949 26.6941 94.4293 26.6553 94.1416C26.6165 93.8538 26.6777 93.5606 26.8271 93.3115C33.0246 83.0292 45.5523 76 60 76ZM60.001 28C71.7829 28 81.3338 37.5511 81.334 49.333C81.334 61.1151 71.7831 70.667 60.001 70.667C48.2189 70.667 38.668 61.1151 38.668 49.333C38.6681 37.5511 48.219 28 60.001 28Z" fill="#737373"/>
<rect x="72" y="72" width="40" height="40" rx="20" fill="black" fill-opacity="0.8"/>
<path d="M99 86H97.414L96.414 85C95.835 84.421 94.819 84 94 84H90C89.181 84 88.165 84.421 87.586 85L86.586 86H85C83.346 86 82 87.346 82 89V97C82 98.654 83.346 100 85 100H99C100.654 100 102 98.654 102 97V89C102 87.346 100.654 86 99 86ZM92 96C91.0716 95.9999 90.1813 95.6309 89.5249 94.9744C88.8685 94.3178 88.4999 93.4274 88.5 92.499C88.5001 91.5706 88.8691 90.6803 89.5256 90.0239C90.1822 89.3675 91.0726 88.9989 92.001 88.999C92.9294 88.9991 93.8197 89.3681 94.4761 90.0246C95.1325 90.6812 95.5011 91.5716 95.501 92.5C95.5009 93.4284 95.1319 94.3187 94.4754 94.9751C93.8188 95.6315 92.9284 96.0001 92 96ZM98 91.299C97.8293 91.299 97.6602 91.2654 97.5025 91.2C97.3448 91.1347 97.2015 91.039 97.0808 90.9182C96.96 90.7975 96.8643 90.6542 96.799 90.4965C96.7336 90.3388 96.7 90.1697 96.7 89.999C96.7 89.8283 96.7336 89.6592 96.799 89.5015C96.8643 89.3438 96.96 89.2005 97.0808 89.0798C97.2015 88.959 97.3448 88.8633 97.5025 88.798C97.6602 88.7326 97.8293 88.699 98 88.699C98.3448 88.699 98.6754 88.836 98.9192 89.0798C99.163 89.3236 99.3 89.6542 99.3 89.999C99.3 90.3438 99.163 90.6744 98.9192 90.9182C98.6754 91.162 98.3448 91.299 98 91.299Z" fill="white"/>
</svg>
