<svg width="24" height="24" viewBox="0 0 24 24" fill="none" xmlns="http://www.w3.org/2000/svg">
<path d="M6.56299 5.25415C7.45047 4.94532 8.41138 4.91801 9.31494 5.17603C10.2185 5.43405 11.0203 5.96463 11.6108 6.69556L11.9995 7.177L12.3892 6.69556C12.9922 5.9494 13.8149 5.41201 14.7407 5.1604C15.6666 4.90881 16.6486 4.95584 17.5464 5.29419C18.4441 5.63254 19.2122 6.24519 19.7417 7.04517C20.2712 7.84517 20.5349 8.79169 20.4956 9.75024V9.7561C20.4082 12.7184 18.2397 15.0328 16.2603 16.5491C15.0432 17.4748 13.7293 18.2657 12.3413 18.9075H12.3403L12.2456 18.9475C12.1678 18.9811 12.0842 18.9991 11.9995 18.9993C11.9187 18.9994 11.839 18.9827 11.7642 18.9524L11.7329 18.9397L11.7202 18.9338L11.7095 18.9299C11.6041 18.8838 11.4994 18.8358 11.396 18.7854L11.3931 18.7834L10.9038 18.5413C9.76997 17.9608 8.69058 17.2788 7.6792 16.5032H7.68018C5.68078 14.9563 3.50486 12.5982 3.49854 9.58325L3.49951 9.52661L3.50049 9.51782C3.50974 8.57826 3.80883 7.66479 4.35693 6.90161C4.90512 6.13837 5.67548 5.563 6.56299 5.25415Z" stroke="#E7000B"/>
</svg>
