<svg width="40" height="40" viewBox="0 0 40 40" fill="none" xmlns="http://www.w3.org/2000/svg">
<path d="M14.645 7.4895C15.4838 7.19764 16.3926 7.17239 17.2466 7.41626C18.1006 7.66017 18.8583 8.16196 19.4165 8.85278L19.9995 9.57446L20.5835 8.85278C21.1535 8.14754 21.9311 7.63945 22.8062 7.40161C23.6813 7.1638 24.6099 7.20778 25.4585 7.52759C26.307 7.84741 27.0332 8.42674 27.5337 9.18286C28.0342 9.9391 28.2838 10.8344 28.2466 11.7405L28.2456 11.7493C28.1615 14.5921 26.0751 16.8435 24.1089 18.3499C22.9057 19.2651 21.6061 20.0466 20.2339 20.6809L20.147 20.718C20.1002 20.7382 20.0494 20.7492 19.9985 20.7493C19.9529 20.7493 19.9083 20.7391 19.8657 20.7229L19.8257 20.7073L19.812 20.7014C19.709 20.6563 19.6065 20.6101 19.5054 20.5608L19.5005 20.5588L19.0171 20.3186C17.8966 19.7449 16.83 19.0705 15.8306 18.304H15.8296C13.8456 16.7683 11.7581 14.4776 11.7485 11.5901L11.7495 11.5325V11.5208C11.7582 10.6326 12.0419 9.76854 12.5601 9.04712C13.0782 8.32576 13.8062 7.78141 14.645 7.4895Z" fill="#E7000B" stroke="#E7000B" stroke-width="1.5"/>
<path d="M7.24902 28.2227V36H6.3252L2.11426 29.9414H2.03906V36H1.07227V28.2227H2.00684L6.21777 34.292H6.29297V28.2227H7.24902ZM12.5342 33.6045V30.167H13.4473V36H12.5342V35.0117H12.4697C12.1904 35.6025 11.6211 36.0752 10.7402 36.0752C9.63379 36.0752 8.84961 35.3555 8.84961 33.873V30.167H9.77344V33.8086C9.77344 34.6465 10.2998 35.1836 11.041 35.1836C11.6963 35.1836 12.5342 34.6895 12.5342 33.6045ZM14.9297 36V30.167H15.8213V31.0801H15.8965C16.1436 30.457 16.7021 30.0918 17.4648 30.0918C18.2275 30.0918 18.7432 30.457 19.0225 31.0801H19.0869C19.3877 30.4785 20 30.0918 20.8379 30.0918C21.8799 30.0918 22.6211 30.7256 22.6211 32.1006V36H21.6973V32.1113C21.6973 31.252 21.1494 30.9189 20.5156 30.9189C19.6992 30.9189 19.2373 31.4668 19.2373 32.208V36H18.3027V32.0146C18.3027 31.3594 17.8301 30.9189 17.1641 30.9189C16.4658 30.9189 15.8535 31.5098 15.8535 32.3584V36H14.9297ZM24.2217 36V28.2227H25.1455V31.0908H25.2207C25.4248 30.7793 25.7686 30.0918 26.9072 30.0918C28.3682 30.0918 29.3994 31.252 29.3994 33.0996C29.3994 34.9473 28.3682 36.1182 26.918 36.1182C25.8008 36.1182 25.4248 35.4307 25.2207 35.1084H25.1133V36H24.2217ZM25.124 33.0781C25.124 34.3887 25.7148 35.291 26.7783 35.291C27.8848 35.291 28.4648 34.3242 28.4648 33.0781C28.4648 31.8643 27.9062 30.9189 26.7783 30.9189C25.7041 30.9189 25.124 31.7891 25.124 33.0781ZM33.0518 36.1182C31.3652 36.1182 30.3232 34.9258 30.3232 33.1318C30.3232 31.3379 31.376 30.0918 32.9658 30.0918C34.1904 30.0918 35.4795 30.8438 35.4795 33.0029V33.3896H31.2471C31.29 34.625 32.0098 35.3018 33.0518 35.3018C33.75 35.3018 34.1904 35.001 34.4053 34.6357H35.3936C35.1143 35.5166 34.2549 36.1182 33.0518 36.1182ZM31.2578 32.6055H34.5449C34.5449 31.6279 33.9219 30.9082 32.9658 30.9082C31.9561 30.9082 31.3115 31.7031 31.2578 32.6055ZM36.6826 36V30.167H37.5742V31.0586H37.6387C37.8535 30.4678 38.4551 30.0703 39.1426 30.0703C39.2822 30.0703 39.5186 30.0811 39.626 30.0918V31.0264C39.5615 31.0049 39.3037 30.9619 39.0674 30.9619C38.2295 30.9619 37.6064 31.542 37.6064 32.3262V36H36.6826Z" fill="#E7000B"/>
</svg>
