<svg width="40" height="40" viewBox="0 0 40 40" fill="none" xmlns="http://www.w3.org/2000/svg">
<path d="M14.75 20C14.75 20.1989 14.671 20.3897 14.5303 20.5303C14.3897 20.671 14.1989 20.75 14 20.75C13.8011 20.75 13.6103 20.671 13.4697 20.5303C13.329 20.3897 13.25 20.1989 13.25 20C13.25 19.8011 13.329 19.6103 13.4697 19.4697C13.6103 19.329 13.8011 19.25 14 19.25C14.1989 19.25 14.3897 19.329 14.5303 19.4697C14.671 19.6103 14.75 19.8011 14.75 20ZM20.75 20C20.75 20.1989 20.671 20.3897 20.5303 20.5303C20.3897 20.671 20.1989 20.75 20 20.75C19.8011 20.75 19.6103 20.671 19.4697 20.5303C19.329 20.3897 19.25 20.1989 19.25 20C19.25 19.8011 19.329 19.6103 19.4697 19.4697C19.6103 19.329 19.8011 19.25 20 19.25C20.1989 19.25 20.3897 19.329 20.5303 19.4697C20.671 19.6103 20.75 19.8011 20.75 20ZM26.75 20C26.75 20.1989 26.671 20.3897 26.5303 20.5303C26.3897 20.671 26.1989 20.75 26 20.75C25.8011 20.75 25.6103 20.671 25.4697 20.5303C25.329 20.3897 25.25 20.1989 25.25 20C25.25 19.8011 25.329 19.6103 25.4697 19.4697C25.6103 19.329 25.8011 19.25 26 19.25C26.1989 19.25 26.3897 19.329 26.5303 19.4697C26.671 19.6103 26.75 19.8011 26.75 20Z" stroke="black" stroke-width="1.5" stroke-linecap="round" stroke-linejoin="round"/>
</svg>
