<svg width="24" height="24" viewBox="0 0 24 24" fill="none" xmlns="http://www.w3.org/2000/svg">
<path d="M3.00004 9.51307C3.01027 8.47042 3.34219 7.45638 3.95046 6.60949C4.55872 5.7626 5.41365 5.12419 6.39841 4.78149C7.38318 4.43879 8.44974 4.40852 9.45236 4.69483C10.455 4.98113 11.3447 5.57003 12 6.38107C12.6692 5.55309 13.5824 4.95715 14.6098 4.67799C15.6371 4.39883 16.7264 4.45064 17.7226 4.82607C18.7188 5.20149 19.5713 5.88143 20.1589 6.76919C20.7465 7.65695 21.0392 8.70736 20.9955 9.77107C20.901 12.9721 18.5685 15.4111 16.563 16.9471C15.3165 17.8952 13.9706 18.705 12.549 19.3621C12.518 19.3771 12.493 19.3881 12.474 19.3951L12.453 19.4041L12.447 19.4071H12.444C12.3039 19.4676 12.1529 19.4989 12.0002 19.4991C11.8475 19.4994 11.6964 19.4686 11.556 19.4086H11.553L11.547 19.4041L11.5245 19.3951C11.4074 19.344 11.2914 19.2905 11.1765 19.2346C9.8318 18.5894 8.5575 17.8068 7.37403 16.8991C5.34604 15.3301 2.99854 12.8371 2.99854 9.57007L3.00004 9.51307Z" fill="#E7000B"/>
</svg>
