<svg width="60" height="60" viewBox="0 0 60 60" fill="none" xmlns="http://www.w3.org/2000/svg">
<path opacity="0.3" d="M6 30C6 26.8483 6.62078 23.7274 7.82689 20.8156C9.033 17.9038 10.8008 15.258 13.0294 13.0294C15.258 10.8008 17.9038 9.033 20.8156 7.82689C23.7274 6.62078 26.8483 6 30 6C33.1517 6 36.2726 6.62078 39.1844 7.82689C42.0962 9.033 44.742 10.8008 46.9706 13.0294C49.1992 15.258 50.967 17.9038 52.1731 20.8156C53.3792 23.7274 54 26.8483 54 30C54 36.3652 51.4714 42.4697 46.9706 46.9706C42.4697 51.4714 36.3652 54 30 54C23.6348 54 17.5303 51.4714 13.0294 46.9706C8.52856 42.4697 6 36.3652 6 30Z" fill="#737373"/>
<path opacity="0.5" d="M30.0003 38C37.2241 38.0002 43.4849 41.515 46.5862 46.6562C46.7461 46.9149 46.6957 47.2429 46.4797 47.4482C42.029 51.663 36.13 54.0082 30.0003 54C23.8704 54.0083 17.9706 51.6631 13.5198 47.4482C13.4148 47.3479 13.3468 47.2142 13.3274 47.0703C13.3081 46.9265 13.3387 46.7806 13.4133 46.6562C16.512 41.5149 22.7763 38 30.0003 38ZM29.9993 14C35.8903 14 40.6663 18.776 40.6663 24.667C40.6661 30.5579 35.8902 35.333 29.9993 35.333C24.1085 35.3328 19.3334 30.5578 19.3333 24.667C19.3333 18.7761 24.1084 14.0002 29.9993 14Z" fill="#737373"/>
</svg>
